# AST/ASF file generated using VICON BodyLanguage
# -----------------------------------------------
:version 1.10
:name VICON
:units
  mass 1.0
  length 0.45
  angle deg
:documentation
   .ast/.asf automatically generated from VICON data using
   VICON BodyBuilder and BodyLanguage model FoxedUp or BRILLIANT.MOD
:root
   order TX TY TZ RX RY RZ
   axis XYZ
   position 0 0 0  
   orientation 0 0 0 
:bonedata
  begin
     id 1 
     name lhipjoint
     direction 0.575328 -0.747301 0.332475 
     length 2.40933 
     axis 0 0 0  XYZ
  end
  begin
     id 2 
     name lfemur
     direction 0.34202 -0.939693 0  
     length 7.31453  
     axis 0 0 20  XYZ
    dof rx ry rz
    limits (-160.0 20.0)
           (-70.0 70.0)
           (-60.0 70.0)
  end
  begin
     id 3 
     name ltibia
     direction 0.34202 -0.939693 0   
     length 7.82185   
     axis 0 0 20   XYZ
    dof rx
    limits (-10.0 170.0)
  end
  begin
     id 4 
     name lfoot
     direction 0.0795993 -0.218697 0.972541   
     length 2.19173   
     axis -90 7.62852e-016 20   XYZ
    dof rx rz
    limits (-45.0 90.0)
           (-70.0 20.0)
  end
  begin
     id 5 
     name ltoes
     direction 1.53537e-011 -4.21894e-011 1   
     length 1.10023   
     axis -90 7.62852e-016 20   XYZ
    dof rx
    limits (-90.0 20.0)
  end
  begin
     id 6 
     name rhipjoint
     direction -0.513884 -0.783789 0.348708   
     length 2.29716  
     axis 0 0 0  XYZ 
  end
  begin
     id 7 
     name rfemur
     direction -0.34202 -0.939693 0   
     length 7.59573   
     axis 0 0 -20   XYZ
    dof rx ry rz
    limits (-160.0 20.0)
           (-70.0 70.0)
           (-70.0 60.0)
  end
  begin
     id 8 
     name rtibia
     direction -0.34202 -0.939693 0   
     length 7.66402   
     axis 0 0 -20   XYZ
    dof rx
    limits (-10.0 170.0)
 end
 begin
     id 9 
     name rfoot
     direction -0.137793 -0.378584 0.915253   
     length 2.27056  
     axis -90 -7.62852e-016 -20   XYZ
    dof rx rz
    limits (-45.0 90.0)
           (-20.0 70.0)
  end
  begin
     id 10 
     name rtoes
     direction -1.53493e-011 -4.22159e-011 1   
     length 1.11766   
     axis -90 -7.62852e-016 -20   XYZ
    dof rx
    limits (-90.0 20.0)
  end
  begin
     id 11 
     name lowerback
     direction -0.00732775 0.998356 -0.05685   
     length 2.16513   
     axis 0 0 0   XYZ
    dof rx ry rz
    limits (-20.0 45.0)
           (-30.0 30.0)
           (-30.0 30.0)
  end
  begin
     id 12 
     name upperback
     direction 0.0218081 0.999627 -0.0164647   
     length 2.16755   
     axis 0 0 0   XYZ
    dof rx ry rz
    limits (-20.0 45.0)
           (-30.0 30.0)
           (-30.0 30.0)
  end
  begin
     id 13 
     name thorax
     direction 0.02365 0.999661 0.0108914   
     length 2.16932   
     axis 0 0 0   XYZ
    dof rx ry rz
    limits (-20.0 45.0)
           (-30.0 30.0)
           (-30.0 30.0)
  end
  begin
     id 14 
     name lowerneck
     direction -0.0523929 0.978385 0.200044   
     length 1.63877   
     axis 0 0 0   XYZ
    dof rx ry rz
    limits (-20.0 45.0)
           (-30.0 30.0)
           (-30.0 30.0)
  end
  begin
     id 15 
     name upperneck
     direction 0.0448674 0.981321 -0.187074   
     length 1.69014   
     axis 0 0 0   XYZ
    dof rx ry rz
    limits (-20.0 45.0)
           (-30.0 30.0)
           (-30.0 30.0)
  end
  begin
     id 16
     name head
     direction 0.0199089 0.996118 -0.0857429  
     length 1.70094  
     axis 0 0 0   XYZ
    dof rx ry rz
    limits (-20.0 45.0)
           (-30.0 30.0)
           (-30.0 30.0)
  end
  begin
     id 17 
     name lclavicle
     direction 0.940366 0.30191 -0.156722  
     length 3.37521  
     axis 0 0 0   XYZ
    dof ry rz
    limits (-20.0 10.0)
           (0.0 20.0)
  end
  begin
     id 18 
     name lhumerus
     direction 1 -4.4897e-011 -1.7911e-027   
     length 5.25287   
     axis 180 -30 -90   XYZ
    dof rx ry rz
    limits (-60.0 90.0)
           (-90.0 90.0)
           (-90.0 90.0)
  end
  begin
     id 19
     name lradius
     direction 1 -4.48951e-011 1.04424e-027   
     length 3.51014   
     axis 180 -30 -90   XYZ
    dof rx
    limits (-10.0 170.0)
  end
  begin
     id 20
     name lwrist
     direction 1 -4.48997e-011 -9.5942e-028   
     length 1.75507   
     axis 8.48502e-016 90 90   XYZ
    dof ry
    limits (-180.0 0.0)
 end
  begin
     id 21 
     name lhand
     direction 1 -4.48831e-011 -1.90777e-027   
     length 0.706179   
     axis 1.22306e-015 90 90   XYZ
    dof rx rz
    limits (-90.0 90.0)
           (-45.0 45.0)
  end
  begin
     id 22 
     name lfingers
     direction 1 -4.49108e-011 -3.85244e-027   
     length 0.569339   
     axis 2.44611e-015 90 90   XYZ
    dof rx
    limits (0.0 90.0)
  end
  begin
     id 23
     name lthumb
     direction 0.707107 -6.34953e-011 0.707107   
     length 0.817461   
     axis -90 45 -1.62303e-014   XYZ
    dof rx rz
    limits (-45.0 45.0)
           (-45.0 45.0)
  end
  begin
     id 24 
     name rclavicle
     direction -0.905329 0.382405 -0.184787   
     length 3.30787  
     axis 0 0 0   XYZ 
    dof ry rz
    limits (-10.0 20.0)
           (-20.0 0.0)
  end
  begin
     id 25 
     name rhumerus
     direction -1 -4.48953e-011 -9.15316e-029  
     length 5.28721   
     axis 180 30 90   XYZ
    dof rx ry rz
    limits (-90.0 60.0)
           (-90.0 90.0)
           (-90.0 90.0)
  end
  begin
     id 26 
     name rradius
     direction -1 -4.48987e-011 9.37824e-028   
     length 3.50544   
     axis 180 30 90   XYZ
    dof rx
    limits (-10.0 170.0)
  end
  begin
     id 27 
     name rwrist
     direction -1 -4.48967e-011 -9.58414e-028   
     length 1.75272   
     axis 8.48502e-016 -90 -90   XYZ
    dof ry
    limits (-180.0 0.0)
  end
  begin
     id 28
     name rhand
     direction -1 -4.48904e-011 -1.91266e-027   
     length 0.884996   
     axis 1.22306e-015 -90 -90   XYZ
    dof rx rz
    limits (-90.0 90.0)
           (-45.0 45.0)
  end
  begin
     id 29
     name rfingers
     direction -1 -4.4909e-011 -3.85015e-027   
     length 0.713507   
     axis 2.44611e-015 -90 -90   XYZ
    dof rx
    limits (0.0 90.0)
  end
  begin
     id 30
     name rthumb
     direction -0.707107 -6.34853e-011 0.707107   
     length 1.02446   
     axis -90 -45 1.62303e-014   XYZ
    dof rx rz
    limits (-45.0 45.0)
           (-45.0 45.0)
  end
:hierarchy
  begin
    root lhipjoint rhipjoint lowerback
    lhipjoint lfemur
    lfemur ltibia
    ltibia lfoot
    lfoot ltoes
    rhipjoint rfemur
    rfemur rtibia
    rtibia rfoot
    rfoot rtoes
    lowerback upperback
    upperback thorax
    thorax lowerneck lclavicle rclavicle
    lowerneck upperneck
    upperneck head
    lclavicle lhumerus
    lhumerus lradius
    lradius lwrist
    lwrist lhand lthumb
    lhand lfingers
    rclavicle rhumerus
    rhumerus rradius
    rradius rwrist
    rwrist rhand rthumb
    rhand rfingers
  end

#!OML:ASF F:\twosubjects\two\Thursday\Session 1\justin.ASF
:FULLY-SPECIFIED
:DEGREES
32
root 10.1174 18.3889 2.43194 -168.697 -26.6955 -178.445
lowerback 4.54335 0.646122 3.39766
upperback 0.748755 0.968697 -1.57845
thorax -1.69227 0.450644 -3.59192
lowerneck -15.5313 -4.80241 -10.336
upperneck 27.6724 -6.56545 4.84759
head 12.2085 -3.78477 2.50235
rclavicle -5.19822e-014 1.59028e-015
rhumerus 32.439 -14.1961 -68.3119
rradius 71.4375
rwrist 17.8901
rhand -23.9324 8.4128
rfingers 7.12502
rthumb 2.54269 -21.5518
lclavicle -5.19822e-014 1.59028e-015
lhumerus -43.474 3.84232 76.873
lradius 38.1095
lwrist 2.8945
lhand -5.9644 37.3402
lfingers 7.12502
lthumb 19.8666 66.3448
rfemur -18.0358 -8.28207 28.3482
rtibia 27.9432
rfoot -19.5919 -20.3989
rtoes -4.34275
lfemur -24.7289 -6.1717 -6.06261
ltibia 49.8625
lfoot -2.12207 -15.7752
ltoes -12.5865
33
root 10.1149 18.374 2.39617 -168.802 -26.4843 -178.205
lowerback 4.39504 0.302873 3.07108
upperback 1.20227 0.489612 -1.01318
thorax -1.19223 0.225857 -2.79144
lowerneck -17.1744 -4.57064 -11.1289
upperneck 28.379 -5.753 4.68536
head 12.7854 -3.50878 2.68247
rclavicle 4.84041e-014 1.47101e-014
rhumerus 33.8274 -12.7213 -68.2119
rradius 71.7039
rwrist 16.3906
rhand -23.8453 8.98661
rfingers 7.12502
rthumb 2.62679 -20.977
lclavicle 4.84041e-014 1.47101e-014
lhumerus -42.9429 5.48996 77.3372
lradius 37.72
lwrist 2.15211
lhand -5.52768 37.1019
lfingers 7.12502
lthumb 20.2863 66.0624
rfemur -17.9026 -8.02871 28.6243
rtibia 27.9709
rfoot -19.7559 -20.5884
rtoes -4.57169
lfemur -24.6685 -5.24128 -5.96895
ltibia 49.209
lfoot -3.78768 -14.7941
ltoes -14.4812
34
root 10.1102 18.3599 2.36278 -168.874 -26.1484 -178.237
lowerback 4.28852 0.316961 2.66154
upperback 1.52238 0.477792 -0.832026
thorax -0.809966 0.225941 -2.37097
lowerneck -17.5495 -4.2444 -10.8047
upperneck 28.3906 -5.07303 3.93555
head 12.7719 -3.26126 2.44614
rclavicle -2.90226e-014 6.55989e-015
rhumerus 34.4417 -12.3741 -68.1175
rradius 72.1577
rwrist 15.7915
rhand -22.8053 8.63737
rfingers 7.12502
rthumb 3.63113 -21.3114
lclavicle -2.90226e-014 6.55989e-015
lhumerus -42.4009 5.78399 77.8049
lradius 37.3366
lwrist 1.37081
lhand -5.15784 37.0174
lfingers 7.12502
lthumb 20.6418 65.9398
rfemur -17.7233 -7.77169 28.5821
rtibia 28.0415
rfoot -19.8208 -20.7243
rtoes -4.96061
lfemur -24.4016 -4.39152 -6.17752
ltibia 48.3852
lfoot -4.73217 -13.6257
ltoes -14.0011
35
root 10.1004 18.3551 2.33275 -168.764 -25.769 -178.524
lowerback 4.25406 0.661826 2.27533
upperback 1.53563 0.915812 -1.06529
thorax -0.753066 0.444744 -2.41399
lowerneck -17.0579 -4.15453 -10.0364
upperneck 28.4516 -5.13503 3.46264
head 12.6582 -3.28624 2.13027
rclavicle 3.74709e-014 -1.78906e-014
rhumerus 33.984 -13.103 -68.118
rradius 72.6845
rwrist 16.2412
rhand -21.3403 7.57974
rfingers 7.12502
rthumb 5.04576 -22.3402
lclavicle 3.74709e-014 -1.78906e-014
lhumerus -41.9957 4.57948 78.2215
lradius 36.786
lwrist 0.642555
lhand -4.58679 36.1
lfingers 7.12502
lthumb 21.1904 64.9619
rfemur -17.5984 -7.57498 28.2156
rtibia 28.0881
rfoot -19.9011 -20.4443
rtoes -3.96832
lfemur -24.1797 -3.74208 -6.68517
ltibia 47.3801
lfoot -5.72121 -12.2134
ltoes -11.888
36
root 10.0893 18.3529 2.30435 -168.485 -25.3483 -178.611
lowerback 4.01602 1.18653 2.17245
upperback 1.46119 1.60412 -1.39559
thorax -0.649331 0.790568 -2.72259
lowerneck -16.779 -4.20332 -9.31918
upperneck 28.7512 -5.47501 3.33192
head 12.717 -3.39713 1.90688
rclavicle 8.06072e-014 1.78906e-014
rhumerus 33.2087 -14.2879 -67.9859
rradius 73.0683
rwrist 16.5429
rhand -20.7723 7.2076
rfingers 7.12502
rthumb 5.59415 -22.6986
lclavicle 8.06072e-014 1.78906e-014
lhumerus -41.5214 2.74938 78.6381
lradius 36.28
lwrist 0.096568
lhand -4.09914 35.3325
lfingers 7.12502
lthumb 21.6588 64.1411
rfemur -17.7089 -7.47779 28.1036
rtibia 28.0827
rfoot -19.9754 -20.0043
rtoes -2.97643
lfemur -24.1561 -2.8479 -7.01812
ltibia 46.2266
lfoot -6.57302 -11.2916
ltoes -12.0197
37
root 10.072 18.3533 2.27384 -168.547 -24.9884 -178.523
lowerback 3.96726 1.44942 2.12376
upperback 1.52054 1.94912 -1.42782
thorax -0.539836 0.964369 -2.74003
lowerneck -16.6824 -4.34963 -9.17885
upperneck 28.9519 -5.74954 3.23012
head 12.7914 -3.52784 1.79878
rclavicle 2.94201e-014 -2.78299e-015
rhumerus 32.821 -14.6492 -67.7367
rradius 73.3423
rwrist 16.6436
rhand -20.6628 7.35906
rfingers 7.12502
rthumb 5.69996 -22.5443
lclavicle 2.94201e-014 -2.78299e-015
lhumerus -41.2052 1.99474 79.0649
lradius 35.9225
lwrist -0.609469
lhand -3.84374 35.7665
lfingers 7.12502
lthumb 21.904 64.5466
rfemur -17.4987 -7.39476 28.1115
rtibia 28.0073
rfoot -20.2421 -19.9082
rtoes -3.22672
lfemur -23.8066 -2.20815 -7.22169
ltibia 44.9555
lfoot -7.53904 -10.2548
ltoes -12.098
38
root 10.055 18.3554 2.24673 -168.797 -24.6143 -178.421
lowerback 3.95591 1.29279 1.81233
upperback 1.72011 1.72743 -1.0468
thorax -0.36437 0.853431 -2.16096
lowerneck -16.6496 -4.07896 -9.75002
upperneck 29.0282 -5.15949 3.06542
head 12.7882 -3.36457 1.9276
rclavicle 3.98563e-014 -1.03368e-014
rhumerus 33.2819 -13.5991 -67.6219
rradius 73.4439
rwrist 16.7961
rhand -20.5211 7.30401
rfingers 7.12502
rthumb 5.83676 -22.5956
lclavicle 3.98563e-014 -1.03368e-014
lhumerus -41.0594 2.89958 79.5274
lradius 35.5568
lwrist -1.48253
lhand -3.68059 35.6806
lfingers 7.12502
lthumb 22.0607 64.4423
rfemur -17.1073 -7.63549 28.1141
rtibia 27.8697
rfoot -20.4134 -19.5685
rtoes -4.39478
lfemur -23.2961 -1.59953 -7.41301
ltibia 43.6071
lfoot -8.60309 -9.00976
ltoes -12.0556
39
root 10.0414 18.3561 2.23041 -168.781 -24.2327 -178.38
lowerback 3.83394 1.10916 1.42471
upperback 1.81046 1.46885 -0.690815
thorax -0.236638 0.722353 -1.56404
lowerneck -16.6839 -3.68657 -10.3046
upperneck 29.1959 -4.44377 3.04102
head 12.8258 -3.13222 2.12691
rclavicle 5.16343e-014 -1.80894e-014
rhumerus 33.987 -12.335 -67.5791
rradius 73.3254
rwrist 16.1084
rhand -20.9914 7.60624
rfingers 7.12502
rthumb 5.38266 -22.3054
lclavicle 5.16343e-014 -1.80894e-014
lhumerus -40.7491 3.71375 79.9862
lradius 34.8568
lwrist -2.19076
lhand -3.55649 34.4139
lfingers 7.12502
lthumb 22.1798 63.1614
rfemur -17.0362 -7.93587 28.1221
rtibia 27.7332
rfoot -20.1503 -19.0436
rtoes -5.04447
lfemur -23.0939 -0.838712 -7.65109
ltibia 42.1767
lfoot -9.24008 -8.19684
ltoes -12.398
40
root 10.0287 18.3506 2.21623 -168.593 -23.7725 -178.432
lowerback 3.83769 1.07962 0.981432
upperback 1.70277 1.4198 -0.51719
thorax -0.366839 0.695024 -1.13724
lowerneck -16.7426 -3.34167 -10.3155
upperneck 29.5637 -3.918 2.80059
head 12.9419 -2.96352 2.11863
rclavicle 5.78463e-014 -1.74931e-014
rhumerus 34.3404 -11.3056 -67.5141
rradius 73.107
rwrist 14.2051
rhand -22.4891 8.74071
rfingers 7.12502
rthumb 3.93646 -21.2027
lclavicle 5.78463e-014 -1.74931e-014
lhumerus -40.486 3.97666 80.3341
lradius 34.0997
lwrist -2.86961
lhand -3.1815 33.6759
lfingers 7.12502
lthumb 22.5398 62.3802
rfemur -17.0742 -7.35382 28.0302
rtibia 27.6535
rfoot -19.9481 -19.2884
rtoes -5.15546
lfemur -22.9696 -0.133419 -7.95666
ltibia 40.6557
lfoot -9.69486 -7.72505
ltoes -12.6413
41
root 10.0081 18.3409 2.19862 -168.35 -23.2209 -178.686
lowerback 3.72477 0.898557 0.333399
upperback 1.7055 1.15876 -0.247766
thorax -0.327022 0.561184 -0.485878
lowerneck -16.9989 -2.94674 -10.6572
upperneck 29.8208 -3.09372 2.32623
head 13.0411 -2.72591 2.12071
rclavicle -2.29596e-014 1.38155e-014
rhumerus 35.2163 -10.395 -67.8741
rradius 73.2094
rwrist 15.6083
rhand -20.7858 8.10508
rfingers 7.12502
rthumb 5.5812 -21.8014
lclavicle -2.29596e-014 1.38155e-014
lhumerus -40.5803 5.16039 80.5999
lradius 34.0973
lwrist -3.66044
lhand -2.65636 33.8023
lfingers 7.12502
lthumb 23.0437 62.4446
rfemur -17.0658 -6.69936 27.6494
rtibia 27.651
rfoot -20.2419 -19.4535
rtoes -4.53312
lfemur -22.7332 0.494516 -8.51851
ltibia 39.0194
lfoot -10.0287 -7.26837
ltoes -12.3759
42
root 9.97603 18.3349 2.17604 -168.156 -22.7677 -178.79
lowerback 3.38676 1.03535 0.18535
upperback 1.75199 1.33656 -0.277548
thorax -0.0914642 0.650271 -0.433199
lowerneck -16.7535 -2.84752 -10.4398
upperneck 29.7607 -2.93222 1.90456
head 12.9423 -2.69236 1.94674
rclavicle 2.50469e-014 -2.06736e-014
rhumerus 35.3173 -10.3878 -67.8115
rradius 73.4769
rwrist 16.1483
rhand -19.3618 7.29519
rfingers 7.12502
rthumb 6.9559 -22.5705
lclavicle 2.50469e-014 -2.06736e-014
lhumerus -40.4691 5.15533 80.8247
lradius 34.2733
lwrist -4.29033
lhand -2.48405 33.7689
lfingers 7.12502
lthumb 23.2091 62.3905
rfemur -17.1301 -6.94038 27.4175
rtibia 27.6781
rfoot -20.3738 -18.8713
rtoes -4.56305
lfemur -22.4643 1.07776 -8.98328
ltibia 37.2567
lfoot -10.0772 -6.84932
ltoes -12.2702
43
root 9.94175 18.3317 2.1496 -168.201 -22.463 -178.496
lowerback 3.16166 1.54204 0.699792
upperback 1.71974 2.02647 -0.586401
thorax 0.0369441 1.00106 -1.05367
lowerneck -16.5025 -2.9337 -9.48623
upperneck 30.1825 -3.37602 1.67552
head 13.0653 -2.83767 1.62498
rclavicle -6.03311e-014 -1.53064e-014
rhumerus 34.3459 -11.4855 -67.4883
rradius 73.8908
rwrist 16.4112
rhand -18.7595 6.85209
rfingers 7.12502
rthumb 7.53725 -22.9936
lclavicle -6.03311e-014 -1.53064e-014
lhumerus -40.0671 3.5561 80.9991
lradius 34.2064
lwrist -4.57073
lhand -2.38446 33.5602
lfingers 7.12502
lthumb 23.3046 62.1697
rfemur -17.108 -7.41155 27.6196
rtibia 27.6987
rfoot -20.3993 -18.3153
rtoes -5.62678
lfemur -22.0402 1.55065 -8.98184
ltibia 35.3724
lfoot -10.2678 -6.5143
ltoes -12.6675
44
root 9.91345 18.3319 2.12818 -168.255 -22.0959 -178.229
lowerback 2.94382 1.57996 0.878719
upperback 1.80296 2.07982 -0.436451
thorax 0.24607 1.02944 -0.993629
lowerneck -17.093 -2.5704 -9.61121
upperneck 31.0604 -2.78721 1.54593
head 13.5232 -2.66435 1.67881
rclavicle 1.2921e-015 -8.74653e-015
rhumerus 34.6306 -11.1257 -67.4766
rradius 73.825
rwrist 16.984
rhand -19.1493 6.74515
rfingers 7.12502
rthumb 7.16107 -23.1137
lclavicle 1.2921e-015 -8.74653e-015
lhumerus -39.8249 3.74561 81.253
lradius 34.1882
lwrist -4.73334
lhand -2.20818 33.0893
lfingers 7.12502
lthumb 23.4737 61.6772
rfemur -17.021 -7.29209 27.7506
rtibia 27.6973
rfoot -20.7833 -18.0483
rtoes -5.32031
lfemur -21.5784 1.99294 -8.97532
ltibia 33.3629
lfoot -10.5113 -6.3935
ltoes -13.2361
45
root 9.88828 18.3319 2.11133 -168.214 -21.6103 -178.158
lowerback 2.80154 1.52057 0.761801
upperback 1.88456 1.99507 -0.232999
thorax 0.395755 0.985204 -0.712439
lowerneck -17.5271 -2.17391 -10.0383
upperneck 31.6594 -2.04929 1.44402
head 13.8335 -2.45334 1.82615
rclavicle -1.22253e-014 -7.7526e-015
rhumerus 35.4693 -10.4238 -67.6347
rradius 73.4605
rwrist 17.1421
rhand -19.2822 6.73233
rfingers 7.12502
rthumb 7.03278 -23.1308
lclavicle -1.22253e-014 -7.7526e-015
lhumerus -39.6262 4.24544 81.5591
lradius 34.2149
lwrist -4.74336
lhand -2.12078 33.0038
lfingers 7.12502
lthumb 23.5575 61.5811
rfemur -16.9687 -7.08667 27.6747
rtibia 27.6994
rfoot -21.0361 -17.7153
rtoes -4.88711
lfemur -21.1309 2.42587 -9.18702
ltibia 31.241
lfoot -10.8027 -6.57562
ltoes -14.0792
46
root 9.86131 18.3323 2.09442 -168.117 -21.1535 -178.251
lowerback 2.82773 1.86391 0.69047
upperback 1.81551 2.45309 -0.445636
thorax 0.325082 1.21501 -0.902715
lowerneck -17.2961 -2.15147 -9.59465
upperneck 31.91 -2.17284 1.23912
head 13.8892 -2.50394 1.64684
rclavicle 6.44559e-014 -6.95746e-015
rhumerus 35.201 -10.9083 -67.4673
rradius 73.402
rwrist 16.5843
rhand -18.944 6.70629
rfingers 7.12502
rthumb 7.3592 -23.1457
lclavicle 6.44559e-014 -6.95746e-015
lhumerus -39.3811 3.24586 81.7883
lradius 34.46
lwrist -4.6585
lhand -2.01903 33.9178
lfingers 7.12502
lthumb 23.6551 62.4824
rfemur -16.8771 -6.94011 27.4287
rtibia 27.6531
rfoot -21.0337 -17.406
rtoes -4.15774
lfemur -20.6719 2.66798 -9.54038
ltibia 29.0641
lfoot -11.0392 -6.96702
ltoes -15.1787
